<svg xmlns="http://www.w3.org/2000/svg" width="96" height="96" viewBox="0 0 72 72">
  <defs/>
  <g fill="#dfdfdf" stroke-width="1.3">
    <path d="M31 21.6c3.6-.2 7.1-.2 10.7 0A602 602 0 0139.5 48c-2.2.2-4.3.1-6.5-.1-.6-8.7-1.7-17.4-2-26.2zM34.5 51.2c2.9-1.4 6.6 1 6.4 4.3.2 3.6-4.6 6-7.4 3.6-2.7-1.9-2.2-6.7 1-8z"/>
  </g>
  <path fill="#898686" stroke-width="1.3" d="M35.2 4c2.6-.4 5.2 1.1 6.8 3 1.9 2.4 3.2 5 4.7 7.5l23.2 39.9c1.5 2.7 2.8 6 1.7 9-1.3 3.2-4.9 4.7-8 4.6H10c-2.8 0-5.8-.3-8-2.2C-.1 64-.4 60.6.5 58c1.2-3.1 3.1-6 4.8-8.8 7.3-12.7 14.8-25.3 22-38 1.8-3 4-6.6 8-7.1M31 21.6c.2 8.8 1.3 17.5 2 26.2 2 .2 4.2.3 6.4 0a602 602 0 002.2-26.2c-3.6-.2-7.1-.2-10.6 0m3.4 29.6c-3.2 1.2-3.7 6-1 8 2.8 2.2 7.6 0 7.4-3.7.2-3.3-3.5-5.7-6.4-4.3z"/>
</svg>
